<svg id="Capa_1" data-name="Capa 1" xmlns="http://www.w3.org/2000/svg" viewBox="0 0 166 234.92" fill="#22d46c"><title>pin</title><path d="M329.5,16.5a30,30,0,0,0-30,30c0,22.5,30,55.71,30,55.71s30-33.21,30-55.71A30,30,0,0,0,329.5,16.5Zm0,40.71A10.71,10.71,0,1,1,340.21,46.5,10.72,10.72,0,0,1,329.5,57.21Z" transform="translate(-193.5 -16.5)"/><path d="M329.47,98.29c-6-.85-12-1.43-18.06-1.8a172.42,172.42,0,0,0-18.12-.21,75.42,75.42,0,0,0-17.76,2.63,25.53,25.53,0,0,0-7.91,3.73,10.63,10.63,0,0,0-4.43,6.83,12.72,12.72,0,0,0,.05,4.18,22.86,22.86,0,0,0,1.22,4.14,57,57,0,0,0,4.15,7.86,77.41,77.41,0,0,0,11.18,13.93q3.17,3.17,6.62,6c1.16.95,2.32,1.89,3.51,2.8s2.38,1.76,3.63,2.74a49,49,0,0,1,12.35,14,50.51,50.51,0,0,1,6,36.34,49.16,49.16,0,0,1-7.38,17.32,56.47,56.47,0,0,1-6,7.25c-1,1.15-2.14,2.23-3.25,3.3l-1.66,1.62-1.74,1.54a84.64,84.64,0,0,1-15.19,10.65,66,66,0,0,1-17.34,6.56A73.09,73.09,0,0,1,241,251.38L236.4,251a19.61,19.61,0,0,1-2.27-.3l-2.26-.37a84.52,84.52,0,0,1-8.91-2l.09-.39a94.3,94.3,0,0,0,18,1.61A71.48,71.48,0,0,0,258.65,247c1.41-.45,2.85-.83,4.24-1.34l4.15-1.59,4-1.88c1.33-.65,2.6-1.42,3.89-2.13a82.53,82.53,0,0,0,14.24-10.55l1.65-1.49,1.58-1.57c1.06-1,2.11-2.09,3.1-3.2a52.33,52.33,0,0,0,5.52-6.8,46,46,0,0,0,7-15.85,46.93,46.93,0,0,0-4.86-33.87,45.9,45.9,0,0,0-11.38-13.29c-1.12-.91-2.39-1.84-3.58-2.8s-2.38-1.94-3.55-2.93q-3.48-3-6.7-6.32a79.85,79.85,0,0,1-11.29-14.55,58.92,58.92,0,0,1-4.18-8.27A24.92,24.92,0,0,1,261.2,114a14.75,14.75,0,0,1,0-4.87,11.62,11.62,0,0,1,1.9-4.53,14.21,14.21,0,0,1,3.43-3.4,27.17,27.17,0,0,1,8.53-3.82,76.74,76.74,0,0,1,18.17-2.29,173.41,173.41,0,0,1,18.21.61c6.05.51,12.08,1.22,18.07,2.21Z" transform="translate(-193.5 -16.5)"/><path d="M223.5,162.77a30,30,0,0,0-30,30c0,22.5,30,55.71,30,55.71s30-33.21,30-55.71A30,30,0,0,0,223.5,162.77Zm0,40.71a10.71,10.71,0,1,1,10.71-10.71A10.72,10.72,0,0,1,223.5,203.48Z" transform="translate(-193.5 -16.5)"/><path d="M262,73a13,13,0,0,0-13,13c0,9.75,13,24.14,13,24.14S275,95.75,275,86A13,13,0,0,0,262,73Zm0,17.64A4.64,4.64,0,1,1,266.64,86,4.64,4.64,0,0,1,262,90.64Z" transform="translate(-193.5 -16.5)"/><path d="M308,150.63a8.5,8.5,0,0,0-8.5,8.5c0,6.38,8.5,15.79,8.5,15.79s8.5-9.41,8.5-15.79A8.5,8.5,0,0,0,308,150.63Zm0,11.54a3,3,0,1,1,3-3A3,3,0,0,1,308,162.16Z" transform="translate(-193.5 -16.5)"/></svg>