<svg id="Layer_1" data-name="Layer 1" xmlns="http://www.w3.org/2000/svg" viewBox="0 0 449.98 350" fill="#22d46c"><title>social-distancing</title><path d="M30.23,79.89a15.89,15.89,0,0,0,0,16.25c1.47,2.49.54,1.28,34.44,35.18a16,16,0,1,0,22.63-22.63L82.62,104H293.37l-4.69,4.69C278.58,118.8,285.87,136,300,136a15.94,15.94,0,0,0,11.31-4.69c35.37-35.37,33-32.69,34.41-35.12a16,16,0,0,0-.93-17.78c-1.09-1.45,2.15,1.9-33.47-33.73a16,16,0,0,0-22.63,22.63L293.37,72H82.62l4.69-4.69A16,16,0,0,0,64.68,44.69c-34,34-33,32.7-34.45,35.2Z" transform="translate(-28 -40)"/><path d="M30.23,215.89a15.89,15.89,0,0,0,0,16.25c1.47,2.49.54,1.28,34.44,35.18a16,16,0,0,0,22.63-22.63L82.62,240H423.37l-4.69,4.69C408.58,254.8,415.87,272,430,272a15.94,15.94,0,0,0,11.31-4.69c35.37-35.37,33-32.69,34.41-35.12a16,16,0,0,0-.93-17.78c-1.09-1.45,2.15,1.9-33.47-33.73a16,16,0,0,0-22.63,22.63l4.69,4.69H82.62l4.69-4.69a16,16,0,0,0-22.63-22.63c-34,34-33,32.7-34.45,35.2Z" transform="translate(-28 -40)"/><path d="M30.23,333.89a15.89,15.89,0,0,0,0,16.25c1.47,2.49.54,1.28,34.44,35.18a16,16,0,0,0,22.63-22.63L82.62,358H213.37l-4.69,4.69C198.58,372.8,205.87,390,220,390a15.94,15.94,0,0,0,11.31-4.69c35.37-35.37,33-32.69,34.41-35.12a16,16,0,0,0-.93-17.78c-1.09-1.45,2.15,1.9-33.47-33.73a16,16,0,0,0-22.63,22.63l4.69,4.69H82.62l4.69-4.69a16,16,0,0,0-22.63-22.63c-34,34-33,32.7-34.45,35.2Z" transform="translate(-28 -40)"/></svg>