<svg id="Layer_1" data-name="Layer 1" xmlns="http://www.w3.org/2000/svg" viewBox="0 0 449.98 724" fill= "#22d46c"><defs><style>.cls-1{fill:#fff;}</style></defs><title>sun</title><rect x="103.5" y="610" width="244" height="114" rx="57" ry="57"/><circle class="cls-1" cx="290.37" cy="667" r="51.37"/><path d="M327.52,697.85a13,13,0,0,0-9.15-3.82,12.73,12.73,0,0,0-9.15,3.82A13,13,0,0,0,318.38,720a12.73,12.73,0,0,0,9.15-3.82,13,13,0,0,0,3.82-9.15A12.73,12.73,0,0,0,327.52,697.85Zm-2.46,15.83a9.56,9.56,0,1,1,2.73-6.69A9.44,9.44,0,0,1,325.06,713.69Z" transform="translate(-28 -40)"/><path d="M342.4,705.23h-5.26a1.77,1.77,0,1,0,0,3.55h5.26a1.77,1.77,0,0,0,0-3.55Z" transform="translate(-28 -40)"/><path d="M318.38,724a1.81,1.81,0,0,0-1.77,1.77V731a1.77,1.77,0,0,0,3.55,0v-5.26A1.81,1.81,0,0,0,318.38,724Z" transform="translate(-28 -40)"/><path d="M336.6,722.77,332.84,719a1.74,1.74,0,1,0-2.46,2.46l3.75,3.75a1.74,1.74,0,0,0,2.46-2.46Z" transform="translate(-28 -40)"/><path d="M318.38,681.2A1.81,1.81,0,0,0,316.6,683v5.26a1.77,1.77,0,1,0,3.55,0V683A1.81,1.81,0,0,0,318.38,681.2Z" transform="translate(-28 -40)"/><path d="M336.67,688.78a1.73,1.73,0,0,0-2.46,0l-3.75,3.75a1.74,1.74,0,0,0,2.46,2.46l3.75-3.75A1.73,1.73,0,0,0,336.67,688.78Z" transform="translate(-28 -40)"/><path d="M299.61,705.23h-5.26a1.81,1.81,0,0,0-1.77,1.77,1.76,1.76,0,0,0,1.77,1.77h5.26a1.77,1.77,0,1,0,0-3.55Z" transform="translate(-28 -40)"/><path d="M306.29,719a1.73,1.73,0,0,0-2.46,0l-3.75,3.75a1.74,1.74,0,0,0,2.46,2.46l3.75-3.75A1.73,1.73,0,0,0,306.29,719Z" transform="translate(-28 -40)"/><path d="M306.29,692.53l-3.75-3.75a1.74,1.74,0,0,0-2.46,2.46l3.75,3.75a1.74,1.74,0,0,0,2.46-2.46Z" transform="translate(-28 -40)"/></svg>